<svg xmlns="http://www.w3.org/2000/svg" width="520" height="210" viewBox="0 0 520 210">
  <rect width="520" height="210" rx="14" fill="#0d1117" stroke="#30363d"/>
  <circle cx="28" cy="36" r="4" fill="#f97316"/>
  <text x="42" y="41" font-family="Segoe UI,sans-serif" font-size="17" font-weight="700" fill="#c9d1d9">🎛 实时状态</text>
  <text x="24" y="76" font-family="Segoe UI,sans-serif" font-size="12" fill="#e6edf3">🤖 AI 依赖度</text>
  <text x="496" y="76" text-anchor="end" font-family="Segoe UI,sans-serif" font-size="12" font-weight="700" fill="#8b5cf6">87%</text>
  <rect x="24" y="82" width="472" height="12" rx="6" fill="#21262d"/>
  <rect x="24" y="82" width="411" height="12" rx="6" fill="#8b5cf6"/>
  <rect x="24" y="82" width="26" height="12" rx="6" fill="#ffffff" opacity="0.22">
    <animateTransform attributeName="transform" type="translate" values="0,0;385,0" dur="2.4s" repeatCount="indefinite"/>
  </rect>
  <text x="24" y="112" font-family="Segoe UI,sans-serif" font-size="12" fill="#e6edf3">🏛 古迹工程进度</text>
  <text x="496" y="112" text-anchor="end" font-family="Segoe UI,sans-serif" font-size="12" font-weight="700" fill="#f59e0b">100%</text>
  <rect x="24" y="118" width="472" height="12" rx="6" fill="#21262d"/>
  <rect x="24" y="118" width="472" height="12" rx="6" fill="#f59e0b"/>
  <text x="24" y="148" font-family="Segoe UI,sans-serif" font-size="12" fill="#e6edf3">☕ 咖啡库存</text>
  <text x="496" y="148" text-anchor="end" font-family="Segoe UI,sans-serif" font-size="12" font-weight="700" fill="#f97316">34%</text>
  <rect x="24" y="154" width="472" height="12" rx="6" fill="#21262d"/>
  <rect x="24" y="154" width="160" height="12" rx="6" fill="#f97316"/>
  <rect x="24" y="154" width="26" height="12" rx="6" fill="#ffffff" opacity="0.22">
    <animateTransform attributeName="transform" type="translate" values="0,0;134,0" dur="2.4s" repeatCount="indefinite"/>
  </rect>
  <text x="24" y="184" font-family="Segoe UI,sans-serif" font-size="12" fill="#e6edf3">💡 灵感余量</text>
  <text x="496" y="184" text-anchor="end" font-family="Segoe UI,sans-serif" font-size="12" font-weight="700" fill="#22d3ee">99%</text>
  <rect x="24" y="190" width="472" height="12" rx="6" fill="#21262d"/>
  <rect x="24" y="190" width="467" height="12" rx="6" fill="#22d3ee"/>
  <rect x="24" y="190" width="26" height="12" rx="6" fill="#ffffff" opacity="0.22">
    <animateTransform attributeName="transform" type="translate" values="0,0;441,0" dur="2.4s" repeatCount="indefinite"/>
  </rect>
  <text x="260" y="202" text-anchor="middle" font-family="Segoe UI,sans-serif" font-size="11" fill="#8b949e">以上数据由 AI 严肃编造，请勿当真</text>
</svg>
